<svg xmlns="http://www.w3.org/2000/svg" viewBox="0 23.25 255.14999389648438 37.099998474121094" data-asc="1.2" width="255.14999389648438" height="37.099998474121094"><defs/><g fill="#ffffff"><g transform="translate(0, 0)"><path d="M3.95 60.20Q2.40 60.20 1.20 59.45Q0 58.70 0 56.95Q0 54.20 1.17 51.35Q2.35 48.50 4.08 45.73Q5.80 42.95 7.52 40.30Q9.25 37.65 10.43 35.25Q11.60 32.85 11.60 30.80Q11.60 29.15 10.80 29.15Q10.25 29.15 9.55 30.02Q8.85 30.90 8.55 32.60L8.00 32.50Q8.00 29.65 9.35 27.67Q10.70 25.70 12.80 24.70Q14.90 23.70 17.10 23.70Q19.65 23.70 21.88 25.15Q24.10 26.60 24.95 29.75Q25.30 31 25.48 32.55Q25.65 34.10 25.70 35.22Q25.75 36.35 25.75 36.35Q25.85 40.40 25.93 43.20Q26.00 46 26.20 47.90Q26.40 49.80 26.75 51.10Q27.10 52.35 27.68 53.13Q28.25 53.90 29.15 53.90Q30.00 53.90 30.63 53.40Q31.25 52.90 31.45 52.45L31.80 52.70Q31.80 55 30.90 56.70Q30.00 58.40 28.55 59.30Q27.10 60.20 25.50 60.20Q23.95 60.20 22.48 59.27Q21.00 58.35 19.90 56.40Q18.80 54.45 18.45 51.35Q16.90 51.25 15.43 51.17Q13.95 51.10 12.75 51.10Q11.95 51.10 11.23 51.13Q10.50 51.15 9.80 51.20Q9.35 52.75 9.08 54.33Q8.80 55.90 8.80 57.40Q8.80 58.55 7.30 59.38Q5.80 60.20 3.95 60.20M11.45 46.55Q12.70 46.20 14.10 46.08Q15.50 45.95 17.10 45.95L18.20 45.95Q18.10 42.25 17.93 38.35Q17.75 34.45 16.65 31.10Q16.25 34.70 14.65 38.65Q13.05 42.60 11.45 46.55ZM39.90 60.20Q38.10 60.20 36.65 58.70Q35.20 57.20 35.20 53.75Q35.20 50.95 35.85 48.25Q36.50 45.55 37.32 42.77Q38.15 40 38.72 37.02Q39.30 34.05 39.10 30.75Q37.75 30.95 36.45 31.45Q35.15 31.95 33.90 32.90Q33.90 29.75 34.45 27.77Q35 25.80 36.60 24.90Q38.20 24 41.35 24Q43.05 24 45.15 24.25Q47.25 24.50 49.47 24.75Q51.70 25 53.70 25Q55.65 25 57.20 24.63Q58.75 24.25 59.60 23.25Q60.60 23.90 61.13 25.02Q61.65 26.15 61.65 27.45Q61.65 28.80 61.02 30.07Q60.40 31.35 59.10 32.17Q57.80 33 55.70 33Q53.50 33 50.90 32.30Q48.30 31.60 45.55 31.10Q45.80 32.20 45.92 33.30Q46.05 34.40 46.05 35.55Q46.05 36.80 45.95 38.02Q45.85 39.25 45.65 40.55Q46.70 40 48.20 39.55Q49.70 39.10 51.27 38.80Q52.85 38.50 54.10 38.50Q54.90 38.50 55.50 38.65Q56 39.70 56 41.20Q56 43.60 54.80 46.10L54.45 46.25Q52.60 45.25 50.17 44.70Q47.75 44.15 45.10 43.95Q44.60 46.80 44.15 49.75Q43.70 52.70 43.70 55.80Q43.70 56.45 43.72 57.15Q43.75 57.85 43.80 58.55Q42.15 60.20 39.90 60.20ZM85.35 60.35Q83.60 60.35 82.33 59.48Q81.05 58.60 80.13 57.20Q79.20 55.80 78.53 54.13Q77.85 52.45 77.25 50.90Q76.35 48.40 75.60 46.52Q74.85 44.65 73.95 43.35Q73 47.15 72.43 50.65Q71.85 54.15 71.70 58.45Q70.80 59.30 69.67 59.75Q68.55 60.20 67.40 60.20Q65.65 60.20 64.30 58.98Q62.95 57.75 62.95 54.85Q62.95 52.85 63.55 50.35Q64.15 47.85 65.03 45.20Q65.90 42.55 66.80 40.05Q67.70 37.55 68.30 35.52Q68.90 33.50 68.90 32.30Q68.90 31.05 68.05 31.05Q67.10 31.05 65.75 32.47Q64.40 33.90 63 36.45L62.70 36.35Q62.70 33.35 64 31Q65.30 28.65 67.53 27.02Q69.75 25.40 72.68 24.55Q75.60 23.70 78.80 23.70Q83.05 23.70 85.70 25.02Q88.35 26.35 89.63 28.42Q90.90 30.50 90.90 32.85Q90.90 35.25 89.68 37.55Q88.45 39.85 86.23 41.38Q84 42.90 80.95 43.15Q82 43.95 82.75 45.17Q83.50 46.40 84.30 47.95Q85 49.35 85.95 50.63Q86.90 51.90 88.55 51.90Q89.40 51.90 89.95 51.48Q90.50 51.05 90.90 50.05L91.20 50.20Q91.45 50.95 91.53 51.65Q91.60 52.35 91.60 52.95Q91.60 56.10 89.85 58.23Q88.10 60.35 85.35 60.35M76.45 38.75Q78.25 38.75 79.58 37.92Q80.90 37.10 81.63 35.88Q82.35 34.65 82.35 33.40Q82.35 31.85 81.18 30.67Q80 29.50 77.35 29.50Q76.95 29.50 76.53 29.52Q76.10 29.55 75.70 29.60Q75.75 29.95 75.75 30.27Q75.75 30.60 75.75 30.60Q75.75 32.90 75.58 35.05Q75.40 37.20 75.10 38.65Q75.45 38.70 75.78 38.72Q76.10 38.75 76.45 38.75ZM98.45 60.25Q97.05 60.25 95.98 59.08Q94.90 57.90 94.90 54.70Q94.90 54.15 94.93 53.73Q94.95 53.30 94.95 53.10Q95.15 51.10 95.53 48.13Q95.90 45.15 96.40 41.88Q96.90 38.60 97.43 35.55Q97.95 32.50 98.40 30.22Q98.85 27.95 99.15 27.10Q99.70 25.60 101.13 24.73Q102.55 23.85 104.05 23.85Q105.35 23.85 106.43 24.60Q107.50 25.35 107.90 27.15Q107.60 28.15 106.95 30.67Q106.30 33.20 105.55 36.85Q104.80 40.50 104.13 44.90Q103.45 49.30 103.05 54.10Q103 54.95 102.90 56.08Q102.80 57.20 102.75 58.35Q102.15 59 100.95 59.63Q99.75 60.25 98.45 60.25ZM113.80 60.20Q112.25 60.20 111.05 59.45Q109.85 58.70 109.85 56.95Q109.85 54.20 111.03 51.35Q112.20 48.50 113.93 45.73Q115.65 42.95 117.38 40.30Q119.10 37.65 120.28 35.25Q121.45 32.85 121.45 30.80Q121.45 29.15 120.65 29.15Q120.10 29.15 119.40 30.02Q118.70 30.90 118.40 32.60L117.85 32.50Q117.85 29.65 119.20 27.67Q120.55 25.70 122.65 24.70Q124.75 23.70 126.95 23.70Q129.50 23.70 131.73 25.15Q133.95 26.60 134.80 29.75Q135.15 31 135.33 32.55Q135.50 34.10 135.55 35.22Q135.60 36.35 135.60 36.35Q135.70 40.40 135.78 43.20Q135.85 46 136.05 47.90Q136.25 49.80 136.60 51.10Q136.95 52.35 137.53 53.13Q138.10 53.90 139 53.90Q139.85 53.90 140.48 53.40Q141.10 52.90 141.30 52.45L141.65 52.70Q141.65 55 140.75 56.70Q139.85 58.40 138.40 59.30Q136.95 60.20 135.35 60.20Q133.80 60.20 132.33 59.27Q130.85 58.35 129.75 56.40Q128.65 54.45 128.30 51.35Q126.75 51.25 125.28 51.17Q123.80 51.10 122.60 51.10Q121.80 51.10 121.08 51.13Q120.35 51.15 119.65 51.20Q119.20 52.75 118.93 54.33Q118.65 55.90 118.65 57.40Q118.65 58.55 117.15 59.38Q115.65 60.20 113.80 60.20M121.30 46.55Q122.55 46.20 123.95 46.08Q125.35 45.95 126.95 45.95L128.05 45.95Q127.95 42.25 127.78 38.35Q127.60 34.45 126.50 31.10Q126.10 34.70 124.50 38.65Q122.90 42.60 121.30 46.55ZM152.65 60.25Q149.90 60.25 148.05 57.95Q146.20 55.65 146.20 51.65Q146.20 49.60 146.65 47.02Q147.10 44.45 147.70 41.80Q148.30 39.15 148.75 36.83Q149.20 34.50 149.20 32.95Q149.20 31.85 148.90 31.22Q148.60 30.60 147.80 30.60Q147.20 30.60 146.40 31.15Q145.60 31.70 145.20 33.30L144.70 33.10Q144.70 28.80 146.68 26.30Q148.65 23.80 152 23.80Q155.15 23.80 156.38 25.85Q157.60 27.90 157.60 31Q157.60 33.30 157.13 35.90Q156.65 38.50 156.05 41.08Q155.45 43.65 154.97 45.85Q154.50 48.05 154.50 49.50Q154.50 51.65 155.60 51.65Q156.25 51.65 157.35 50.73Q158.45 49.80 159.68 48.17Q160.90 46.55 162.05 44.48Q163.20 42.40 164 40.10Q163.90 39 163.85 37.97Q163.80 36.95 163.80 36.15Q163.80 32.15 164.58 29.70Q165.35 27.25 166.55 26.10Q167.75 24.95 169 24.95Q170.75 24.95 172.15 26.88Q173.55 28.80 173.55 32.10Q173.55 34.15 172.80 36.67Q172.05 39.20 170.30 42.05Q170.15 46.35 171.25 49Q172.35 51.65 174 51.65Q175.05 51.65 176.28 50.58Q177.50 49.50 178.55 47.58Q179.60 45.65 180.28 43.10Q180.95 40.55 180.95 37.65Q180.95 35.95 180.73 34.10Q180.50 32.25 180.18 30.55Q179.85 28.85 179.50 27.75Q179.50 26.90 180.23 26.02Q180.95 25.15 182.10 24.52Q183.25 23.90 184.45 23.90Q185.65 23.90 186.75 24.75Q187.85 25.60 188.55 27.73Q189.25 29.85 189.25 33.75Q189.25 39.20 187.85 43.97Q186.45 48.75 184.08 52.40Q181.70 56.05 178.85 58.13Q176 60.20 173.05 60.20Q170.45 60.20 168.75 58.60Q167.05 57 166.10 54.30Q165.15 51.60 164.75 48.30Q162.95 52.60 160.85 55.23Q158.75 57.85 156.65 59.05Q154.55 60.25 152.65 60.25ZM194.05 60.20Q192.50 60.20 191.30 59.45Q190.10 58.70 190.10 56.95Q190.10 54.20 191.28 51.35Q192.45 48.50 194.18 45.73Q195.90 42.95 197.63 40.30Q199.35 37.65 200.53 35.25Q201.70 32.85 201.70 30.80Q201.70 29.15 200.90 29.15Q200.35 29.15 199.65 30.02Q198.95 30.90 198.65 32.60L198.10 32.50Q198.10 29.65 199.45 27.67Q200.80 25.70 202.90 24.70Q205 23.70 207.20 23.70Q209.75 23.70 211.98 25.15Q214.20 26.60 215.05 29.75Q215.40 31 215.58 32.55Q215.75 34.10 215.80 35.22Q215.85 36.35 215.85 36.35Q215.95 40.40 216.03 43.20Q216.10 46 216.30 47.90Q216.50 49.80 216.85 51.10Q217.20 52.35 217.78 53.13Q218.35 53.90 219.25 53.90Q220.10 53.90 220.73 53.40Q221.35 52.90 221.55 52.45L221.90 52.70Q221.90 55 221 56.70Q220.10 58.40 218.65 59.30Q217.20 60.20 215.60 60.20Q214.05 60.20 212.58 59.27Q211.10 58.35 210 56.40Q208.90 54.45 208.55 51.35Q207 51.25 205.53 51.17Q204.05 51.10 202.85 51.10Q202.05 51.10 201.33 51.13Q200.60 51.15 199.90 51.20Q199.45 52.75 199.18 54.33Q198.90 55.90 198.90 57.40Q198.90 58.55 197.40 59.38Q195.90 60.20 194.05 60.20M201.55 46.55Q202.80 46.20 204.20 46.08Q205.60 45.95 207.20 45.95L208.30 45.95Q208.20 42.25 208.03 38.35Q207.85 34.45 206.75 31.10Q206.35 34.70 204.75 38.65Q203.15 42.60 201.55 46.55ZM229.50 60.20Q227.65 60.20 226.13 58.70Q224.60 57.20 224.60 53.95Q224.60 50.70 225.22 47.67Q225.85 44.65 226.68 41.85Q227.50 39.05 228.13 36.52Q228.75 34 228.75 31.75Q228 31.45 227.35 31.45Q226.45 31.45 225.85 32Q225.25 32.55 224.90 33.50L224.40 33.35Q224.45 29.85 225.43 27.77Q226.40 25.70 227.95 24.80Q229.50 23.90 231.15 23.90Q233.65 23.90 235.63 25.52Q237.60 27.15 239.18 29.95Q240.75 32.75 241.93 36.27Q243.10 39.80 243.95 43.63Q244.80 47.45 245.30 51.15Q245.60 49.15 245.93 46.25Q246.25 43.35 246.50 40.15Q246.75 36.95 246.75 34.05Q246.75 31.95 246.60 30.22Q246.45 28.50 246.10 27.25L246.10 26.85Q247.40 25.40 248.73 24.65Q250.05 23.90 251.20 23.90Q252.90 23.90 254.03 25.38Q255.15 26.85 255.15 29.55Q255.15 31.55 254.60 34.42Q254.05 37.30 253.30 40.55Q252.55 43.80 251.98 46.92Q251.40 50.05 251.35 52.55Q251.35 53.25 251.45 54.05Q251.55 54.85 252.50 54.85Q252.55 55.05 252.55 55.15Q252.55 55.25 252.55 55.35Q252.50 57.25 251 58.73Q249.50 60.20 247 60.20Q245.05 60.20 243.70 59.20Q242.35 58.20 241.45 56.52Q240.55 54.85 239.93 52.73Q239.30 50.60 238.75 48.35Q237.75 44.45 236.68 40.92Q235.60 37.40 233.80 34.45Q233.90 36.45 233.65 38.83Q233.40 41.20 233.13 43.63Q232.85 46.05 232.85 48.30Q232.85 50.30 233.20 51.98Q233.55 53.65 234.45 54.95Q234.45 57.40 232.90 58.80Q231.35 60.20 229.50 60.20Z"/></g></g></svg>